<svg xmlns="http://www.w3.org/2000/svg" viewBox="265 212 724 610" role="img" aria-labelledby="title" shape-rendering="geometricPrecision">
  <title id="title">Jellyfin Canopy mark</title>
  <defs>
    <linearGradient id="markGradient" gradientUnits="userSpaceOnUse" x1="283" y1="0" x2="971" y2="0">
      <stop offset="0" stop-color="#00C4ED"/>
      <stop offset="0.24" stop-color="#08AEEE"/>
      <stop offset="0.52" stop-color="#2584F4"/>
      <stop offset="0.78" stop-color="#555CF2"/>
      <stop offset="1" stop-color="#783FF2"/>
    </linearGradient>
    <linearGradient id="wordGradient" gradientUnits="userSpaceOnUse" x1="634" y1="0" x2="1116" y2="0">
      <stop offset="0" stop-color="#147FF8"/>
      <stop offset="0.38" stop-color="#376CF6"/>
      <stop offset="0.72" stop-color="#5A52F3"/>
      <stop offset="1" stop-color="#7E35EF"/>
    </linearGradient>
  </defs>
  
  <path d="M 330 381 L 326 389 L 325 398 L 328 407 L 334 414 L 320 440 L 308 472 L 306 474 L 300 474 L 293 477 L 285 485 L 283 490 L 283 502 L 287 510 L 297 517 L 311 518 L 321 511 L 325 511 L 383 541 L 391 547 L 391 564 L 378 573 L 322 600 L 318 596 L 309 592 L 302 592 L 293 596 L 289 600 L 285 612 L 286 618 L 293 628 L 302 632 L 310 632 L 317 629 L 325 619 L 326 608 L 328 606 L 395 574 L 411 584 L 426 584 L 438 578 L 444 571 L 446 565 L 453 559 L 464 554 L 491 549 L 516 552 L 526 556 L 539 565 L 549 576 L 556 588 L 564 612 L 568 644 L 566 683 L 557 720 L 543 747 L 524 768 L 515 775 L 493 787 L 457 798 L 426 803 L 530 803 L 550 800 L 565 795 L 585 783 L 603 764 L 618 737 L 626 713 L 628 714 L 635 737 L 653 768 L 669 784 L 690 796 L 703 800 L 723 803 L 826 803 L 779 794 L 744 779 L 731 770 L 712 750 L 706 741 L 694 715 L 687 684 L 685 658 L 686 631 L 690 608 L 697 588 L 705 575 L 719 561 L 734 553 L 745 550 L 763 549 L 789 554 L 802 560 L 807 565 L 812 575 L 819 581 L 832 585 L 845 583 L 857 574 L 926 607 L 927 616 L 930 623 L 936 629 L 943 632 L 957 630 L 966 620 L 967 607 L 963 599 L 958 595 L 946 592 L 941 593 L 930 600 L 867 569 L 862 565 L 862 547 L 873 539 L 928 511 L 932 511 L 936 515 L 943 518 L 954 518 L 963 513 L 969 504 L 970 491 L 967 484 L 960 477 L 953 474 L 947 474 L 945 472 L 936 447 L 919 415 L 925 407 L 928 397 L 925 384 L 919 377 L 911 373 L 902 372 L 893 375 L 851 334 L 853 326 L 852 317 L 843 306 L 837 303 L 827 303 L 814 309 L 784 292 L 759 281 L 759 270 L 756 263 L 752 258 L 745 254 L 730 254 L 723 258 L 717 266 L 659 258 L 652 242 L 643 234 L 633 230 L 620 230 L 610 234 L 601 242 L 595 256 L 588 259 L 536 266 L 527 256 L 519 253 L 511 253 L 502 257 L 496 264 L 494 270 L 494 280 L 492 282 L 469 292 L 440 309 L 437 309 L 427 303 L 417 303 L 410 306 L 403 313 L 400 325 L 402 334 L 360 375 L 352 372 L 346 372 L 337 375 Z M 596 607 L 605 610 L 670 652 L 674 659 L 670 666 L 600 710 L 594 709 L 591 704 L 591 614 Z M 821 469 L 826 494 L 828 525 L 826 528 L 818 531 L 807 544 L 798 545 L 758 534 L 734 534 L 708 542 L 694 551 L 679 565 L 668 581 L 665 581 L 666 564 L 674 536 L 688 512 L 709 491 L 739 474 L 792 457 L 800 457 L 805 462 Z M 432 469 L 436 466 L 445 464 L 453 457 L 459 457 L 511 473 L 537 486 L 562 508 L 573 524 L 583 548 L 587 566 L 588 581 L 586 582 L 575 566 L 555 548 L 540 540 L 525 535 L 494 534 L 454 545 L 446 544 L 436 532 L 425 526 L 427 494 Z M 615 434 L 625 437 L 636 434 L 641 436 L 660 458 L 665 468 L 668 480 L 666 501 L 642 549 L 634 572 L 627 604 L 625 603 L 622 584 L 613 554 L 588 504 L 585 492 L 585 479 L 593 458 L 600 448 Z M 910 418 L 916 425 L 929 451 L 937 473 L 937 477 L 930 483 L 927 489 L 926 502 L 859 537 L 847 529 L 838 527 L 835 518 L 830 465 L 836 462 L 845 450 L 847 442 L 846 432 L 884 411 L 896 418 Z M 343 418 L 357 418 L 369 411 L 402 428 L 407 432 L 406 443 L 411 456 L 423 466 L 417 524 L 414 527 L 406 529 L 396 537 L 357 519 L 326 501 L 326 489 L 323 483 L 316 477 L 316 474 L 325 449 L 337 425 Z M 797 429 L 794 438 L 794 445 L 790 449 L 771 457 L 750 461 L 723 469 L 702 479 L 688 489 L 686 488 L 695 454 L 704 398 L 718 392 L 724 386 L 731 387 L 758 401 L 784 418 Z M 457 428 L 488 405 L 522 387 L 528 386 L 535 392 L 547 396 L 550 402 L 556 445 L 566 487 L 564 488 L 551 479 L 530 469 L 515 464 L 482 457 L 463 449 L 459 445 Z M 524 362 L 524 376 L 521 379 L 489 396 L 451 421 L 440 415 L 428 414 L 418 418 L 413 423 L 409 423 L 376 406 L 372 402 L 372 390 L 368 382 L 375 371 L 405 343 L 409 342 L 417 346 L 426 346 L 437 340 L 442 333 L 454 334 L 479 341 L 507 352 Z M 729 362 L 732 359 L 760 346 L 787 337 L 809 332 L 820 343 L 827 346 L 835 346 L 844 342 L 848 343 L 861 354 L 886 381 L 881 390 L 881 403 L 841 424 L 833 417 L 824 414 L 816 414 L 802 421 L 772 401 L 732 379 L 729 376 Z M 609 290 L 620 293 L 634 293 L 641 290 L 646 291 L 667 313 L 688 343 L 689 347 L 679 359 L 677 374 L 684 388 L 695 396 L 695 409 L 688 446 L 678 473 L 663 450 L 643 428 L 645 423 L 645 412 L 643 407 L 637 401 L 630 398 L 620 399 L 610 407 L 608 411 L 608 423 L 610 428 L 590 450 L 576 473 L 572 468 L 560 425 L 558 396 L 573 382 L 576 373 L 576 366 L 573 357 L 564 346 L 569 336 L 585 314 Z M 650 283 L 659 267 L 680 268 L 715 275 L 721 289 L 730 295 L 743 296 L 754 289 L 757 289 L 789 304 L 808 315 L 811 319 L 806 325 L 760 338 L 724 353 L 711 344 L 698 342 L 672 308 Z M 602 282 L 600 287 L 581 308 L 554 343 L 542 344 L 534 348 L 529 353 L 487 336 L 443 323 L 442 318 L 445 315 L 494 290 L 499 289 L 510 296 L 523 295 L 532 289 L 537 277 L 541 274 L 574 268 L 594 267 Z" fill="url(#markGradient)" fill-rule="evenodd"/>
</svg>
